<?xml version="1.0" encoding="UTF-8" standalone="no"?>
<svg
   version="1.1"
   width="60.099998mm"
   height="96.599998mm"
   viewBox="0 0 60.100001 96.600002"
   id="svg53"
   sodipodi:docname="front-mask.svg"
   inkscape:version="1.4 (1:1.4+202410161351+e7c3feb100)"
   xmlns:inkscape="http://www.inkscape.org/namespaces/inkscape"
   xmlns:sodipodi="http://sodipodi.sourceforge.net/DTD/sodipodi-0.dtd"
   xmlns="http://www.w3.org/2000/svg"
   xmlns:svg="http://www.w3.org/2000/svg"
   xmlns:rdf="http://www.w3.org/1999/02/22-rdf-syntax-ns#"
   xmlns:cc="http://creativecommons.org/ns#"
   xmlns:dc="http://purl.org/dc/elements/1.1/">
  <defs
     id="defs53" />
  <sodipodi:namedview
     id="namedview53"
     pagecolor="#ffffff"
     bordercolor="#000000"
     borderopacity="0.25"
     inkscape:showpageshadow="2"
     inkscape:pageopacity="0.0"
     inkscape:pagecheckerboard="0"
     inkscape:deskcolor="#d1d1d1"
     inkscape:document-units="mm"
     inkscape:zoom="1.4777354"
     inkscape:cx="-39.249246"
     inkscape:cy="133.65045"
     inkscape:window-width="1680"
     inkscape:window-height="1013"
     inkscape:window-x="1920"
     inkscape:window-y="0"
     inkscape:window-maximized="1"
     inkscape:current-layer="svg53" />
  <title
     id="title1">SVG Image created as noel-2023-F_Mask.svg date 2025/01/09 14:11:52 </title>
  <desc
     id="desc1">Image generated by PCBNEW </desc>
  <g
     style="display:inline;fill:none;stroke:#000000;stroke-width:0.1;stroke-linecap:round;stroke-linejoin:round;stroke-opacity:1"
     id="g53"
     inkscape:label="Edge">
    <path
       d="m 13.2831,42.217 a 44.0761,44.0761 0 0 0 6.0249,1.9847"
       id="path20" />
    <path
       d="m 28.732,10.2924 -0.1897,0.6825"
       id="path21" />
    <path
       d="m 31.5577,10.9749 5.6252,-0.2425"
       id="path22" />
    <path
       d="M 2.021,82.7401 A 56.2009,56.2009 0 0 0 27.05,86.6938"
       id="path23" />
    <path
       d="M 32.2542,17.3663 A 15.1704,15.1704 0 0 0 42.05,28.95"
       id="path24" />
    <path
       d="m 18.05,28.95 a 30,30 0 0 0 5.0289,1.6834"
       id="path25" />
    <path
       d="M 2.021,82.7401 A 15.1704,15.1704 0 0 0 11.8168,71.1564"
       id="path26" />
    <path
       d="m 44.5435,57.7003 a 58.0827,58.0827 0 0 0 6.0443,-1.9149"
       id="path27" />
    <path
       d="m 31.368,10.2924 a 3.5,3.5 0 1 0 -2.636,0"
       id="path28" />
    <path
       d="M 5.7607,69.284 A 15.1704,15.1704 0 0 0 15.5565,57.7003"
       id="path29" />
    <path
       d="m 32.2542,17.3663 2.2042,1.7513"
       id="path30" />
    <circle
       cx="30.049999"
       cy="7.0500002"
       r="2.5"
       id="circle30" />
    <path
       d="m 32.4895,13.8426 1.9689,5.275"
       id="path31" />
    <path
       d="M 9.5122,55.7854 A 15.1704,15.1704 0 0 0 19.308,44.2017"
       id="path32" />
    <path
       d="M 33.05,86.6938 V 93.05"
       id="path33" />
    <path
       d="m 32.4895,13.8426 4.6934,-3.1102"
       id="path34" />
    <path
       d="m 40.792,44.2017 a 15.1704,15.1704 0 0 0 9.7958,11.5837"
       id="path35" />
    <path
       d="M 44.5435,57.7003 A 15.1704,15.1704 0 0 0 54.3393,69.284"
       id="path36" />
    <path
       d="m 40.792,44.2017 a 44.0762,44.0762 0 0 0 6.0249,-1.9846"
       id="path37" />
    <path
       d="M 27.6105,13.8426 22.9171,10.7324"
       id="path38" />
    <path
       d="m 22.9171,10.7324 5.6252,0.2425"
       id="path39" />
    <path
       d="m 27.05,93.05 h 6"
       id="path40" />
    <path
       d="M 13.2831,42.2171 A 15.1704,15.1704 0 0 0 23.0789,30.6334"
       id="path41" />
    <path
       d="M 48.2832,71.1564 A 15.1704,15.1704 0 0 0 58.079,82.7401"
       id="path42" />
    <path
       d="M 27.05,86.6938 V 93.05"
       id="path43" />
    <path
       d="M 31.5577,10.9749 31.368,10.2924"
       id="path44" />
    <path
       d="m 27.8458,17.3663 -2.2042,1.7513"
       id="path45" />
    <path
       d="M 18.05,28.95 A 15.1703,15.1703 0 0 0 27.8458,17.3663"
       id="path46" />
    <path
       d="m 37.0211,30.6334 a 15.1703,15.1703 0 0 0 9.7958,11.5837"
       id="path47" />
    <path
       d="M 48.2832,71.1564 A 72.0469,72.0469 0 0 0 54.3393,69.284"
       id="path48" />
    <path
       d="m 9.5122,55.7854 a 58.0827,58.0827 0 0 0 6.0443,1.9149"
       id="path49" />
    <path
       d="m 5.7607,69.284 a 72.0469,72.0469 0 0 0 6.0561,1.8724"
       id="path50" />
    <path
       d="M 33.05,86.6939 A 56.2009,56.2009 0 0 0 58.079,82.7401"
       id="path51" />
    <path
       d="M 37.0211,30.6334 A 30,30 0 0 0 42.05,28.95"
       id="path52" />
    <path
       d="m 25.6416,19.1176 1.9689,-5.275"
       id="path53" />
  </g>
  <metadata
     id="metadata53">
    <rdf:RDF>
      <cc:Work
         rdf:about="">
        <dc:title>SVG Image created as noel-2023-F_Mask.svg date 2025/01/09 14:11:52 </dc:title>
      </cc:Work>
    </rdf:RDF>
  </metadata>
  <g
     inkscape:groupmode="layer"
     id="layer1"
     inkscape:label="Mask">
    <g
       style="fill:#000000;fill-opacity:1;stroke:#000000;stroke-linecap:round;stroke-linejoin:round;stroke-opacity:1"
       id="g16"
       inkscape:label="Garlands"
       inkscape:highlight-color="#f3215a">
      <path
         style="fill:#000000;fill-opacity:1;fill-rule:evenodd;stroke:none;stroke-linecap:round;stroke-linejoin:round;stroke-opacity:1"
         d="m 50.75,67.45 -2.2771,1.5868 -2.3433,1.4642 -2.4045,1.3403 -2.4608,1.2152 -2.512,1.0889 -2.5584,0.9616 -2.5998,0.8328 -2.6363,0.7031 -2.6677,0.572 -2.6943,0.4399 -2.7159,0.3064 -2.7325,0.1718 -2.7442,0.0361 -2.751,-0.1009 -2.7527,-0.2391 -2.7496,-0.3784 1.897,-3.5777 2.4368,0.2761 2.4374,0.1592 2.434,0.0433 2.4266,-0.0718 2.4153,-0.1857 2.4,-0.2988 2.3809,-0.4108 2.3576,-0.522 2.3306,-0.632 2.2996,-0.7412 2.2645,-0.8494 2.2255,-0.9566 2.1827,-1.0628 2.1358,-1.168 2.085,-1.2723 2.0303,-1.3757 z"
         id="path3"
         inkscape:label="Bottom" />
      <path
         style="fill:#000000;fill-opacity:1;fill-rule:evenodd;stroke:none"
         d="m 20.4257,46.0365 1.3977,0.6301 1.4182,0.5736 1.4367,0.5168 1.4537,0.4595 1.4688,0.4021 1.4823,0.3443 1.494,0.2863 1.5041,0.2279 1.5123,0.1693 1.5189,0.1103 1.5237,0.051 1.5268,-0.0084 1.5282,-0.0683 1.5279,-0.1284 1.5258,-0.1889 1.3932,1.8922 -1.652,0.2488 -1.656,0.1812 -1.6578,0.1138 -1.6578,0.0467 -1.6557,-0.02 L 34.2071,51.79 32.5616,51.6375 30.9242,51.4191 29.2968,51.1353 27.6816,50.7862 26.0803,50.3722 24.4952,49.8937 22.9281,49.3509 21.3811,48.7441 19.8562,48.0736 18.3553,47.3398 19.05,45.35 Z"
         id="path1"
         inkscape:label="Middle" />
      <path
         style="fill:#000000;fill-opacity:1;fill-rule:evenodd;stroke:none"
         d="m 38.25,34.45 -1.09,0.6701 -1.115,0.618 -1.1384,0.5653 -1.1597,0.5123 -1.1792,0.4589 -1.1968,0.4051 -1.2126,0.3508 -1.2264,0.2962 -1.2385,0.2411 -1.2485,0.1856 -1.2569,0.1298 -1.2632,0.0735 -1.2677,0.0168 -1.2703,-0.0403 -1.2711,-0.0979 -1.27,-0.1557 1.1062,-1.1467 1.1723,0.1039 1.1717,0.0525 1.1696,0.0016 1.1658,-0.049 1.1605,-0.0991 1.1537,-0.149 1.1451,-0.1983 1.1349,-0.2474 1.1233,-0.2961 1.11,-0.3443 1.0951,-0.3921 1.0786,-0.4397 1.0605,-0.4868 1.0408,-0.5335 1.0195,-0.5798 L 37.75,33.25 Z"
         id="path2"
         inkscape:label="Top" />
    </g>
    <path
       style="display:inline;fill:#000000;fill-opacity:1;fill-rule:evenodd;stroke:none"
       d="m 29.1248,9.3763 3e-4,-8e-4 0.3026,0.0983 0.3087,0.0589 v 0 L 30.05,9.5525 v 0 l 0.3136,-0.0198 0.3087,-0.0589 0.3026,-0.0983 3e-4,9e-4 0.0656,-0.006 0.062,0.0322 0.0335,0.0562 0.2305,0.8293 v 0 l 0.1909,0.6868 5.1795,-0.2233 0.0678,0.0168 0.048,0.0508 0.0129,0.0686 -0.0263,0.0648 -0.0286,0.0262 -4.3215,2.8638 1.8129,4.857 0.005,0.0697 -0.0335,0.0613 -0.0613,0.0335 -0.0697,-0.0049 -0.0338,-0.0191 -1.9143,-1.521 -0.0015,-5e-4 -0.008,-0.0058 -2.1353,-1.6954 -2.1353,1.6954 -0.0031,0.0013 -1.9207,1.526 -0.0647,0.0263 -0.0687,-0.0129 -0.0508,-0.048 -0.0168,-0.0678 0.0077,-0.0381 1.8129,-4.857 -4.3215,-2.8638 -0.045,-0.0534 -0.009,-0.0693 0.0299,-0.0631 0.0593,-0.037 0.0386,-0.0044 5.1795,0.2233 0.1987,-0.7148 v 0 l 0.2227,-0.8013 0.0369,-0.0593 0.0631,-0.0299 z"
       id="star"
       inkscape:label="Star"
       inkscape:highlight-color="#f3215a" />
  </g>
</svg>
